<mxfile host="app.diagrams.net" agent="Mozilla/5.0 (Windows NT 10.0; Win64; x64) AppleWebKit/537.36 (KHTML, like Gecko) Chrome/134.0.0.0 Safari/537.36" version="26.1.0">
  <diagram name="Page-1" id="19d8dcba-68ad-dc05-1034-9cf7b2a963f6">
    <mxGraphModel dx="1500" dy="796" grid="1" gridSize="10" guides="1" tooltips="1" connect="1" arrows="1" fold="1" page="1" pageScale="1" pageWidth="1100" pageHeight="850" background="none" math="0" shadow="0">
      <root>
        <mxCell id="0" />
        <mxCell id="1" parent="0" />
        <mxCell id="218ae93e1282097f-42" value="" style="edgeStyle=orthogonalEdgeStyle;rounded=1;html=1;labelBackgroundColor=none;endArrow=block;endFill=1;strokeColor=#4D4D4D;strokeWidth=2;fontFamily=Verdana;fontSize=12;fontStyle=1" parent="1" source="6257edae8c83ed4a-1" target="6257edae8c83ed4a-12" edge="1">
          <mxGeometry relative="1" as="geometry" />
        </mxCell>
        <mxCell id="218ae93e1282097f-43" value="" style="edgeStyle=orthogonalEdgeStyle;rounded=1;html=1;labelBackgroundColor=none;endArrow=block;endFill=1;strokeColor=#4D4D4D;strokeWidth=2;fontFamily=Verdana;fontSize=12;fontStyle=1" parent="1" source="6257edae8c83ed4a-1" target="6257edae8c83ed4a-9" edge="1">
          <mxGeometry relative="1" as="geometry" />
        </mxCell>
        <mxCell id="218ae93e1282097f-44" value="" style="edgeStyle=orthogonalEdgeStyle;rounded=1;html=1;labelBackgroundColor=none;endArrow=block;endFill=1;strokeColor=#4D4D4D;strokeWidth=2;fontFamily=Verdana;fontSize=12;fontStyle=1" parent="1" source="6257edae8c83ed4a-1" target="218ae93e1282097f-2" edge="1">
          <mxGeometry relative="1" as="geometry" />
        </mxCell>
        <mxCell id="218ae93e1282097f-47" value="" style="edgeStyle=orthogonalEdgeStyle;rounded=1;html=1;labelBackgroundColor=none;endArrow=block;endFill=1;strokeColor=#4D4D4D;strokeWidth=2;fontFamily=Verdana;fontSize=12;fontStyle=1;exitX=1;exitY=0.5;exitDx=0;exitDy=0;" parent="1" source="6257edae8c83ed4a-1" target="218ae93e1282097f-5" edge="1">
          <mxGeometry relative="1" as="geometry" />
        </mxCell>
        <mxCell id="218ae93e1282097f-8" value="Đăng Ký Tài Khoản" style="whiteSpace=wrap;html=1;rounded=1;shadow=0;comic=0;strokeWidth=2;fontFamily=Verdana;align=center;fontSize=12;fontStyle=1" parent="1" vertex="1">
          <mxGeometry x="580" y="330" width="50" height="120" as="geometry" />
        </mxCell>
        <mxCell id="6257edae8c83ed4a-9" value="Quản Lí Người Dùng" style="whiteSpace=wrap;html=1;rounded=1;shadow=0;comic=0;strokeWidth=2;fontFamily=Verdana;align=center;fontSize=12;fontStyle=1" parent="1" vertex="1">
          <mxGeometry x="580" y="220" width="190" height="50" as="geometry" />
        </mxCell>
        <mxCell id="6257edae8c83ed4a-21" value="Cập Nhật Thông Tin Cá Nhân" style="whiteSpace=wrap;html=1;rounded=1;shadow=0;comic=0;strokeWidth=2;fontFamily=Verdana;align=center;fontSize=12;fontStyle=1" parent="1" vertex="1">
          <mxGeometry x="715" y="330" width="55" height="120" as="geometry" />
        </mxCell>
        <mxCell id="6257edae8c83ed4a-12" value="Tìm Kiếm Và Xem Thông Tin Chuyến Xe" style="whiteSpace=wrap;html=1;rounded=1;shadow=0;comic=0;strokeWidth=2;fontFamily=Verdana;align=center;fontSize=12;fontStyle=1" parent="1" vertex="1">
          <mxGeometry x="803" y="220" width="197" height="50" as="geometry" />
        </mxCell>
        <mxCell id="6257edae8c83ed4a-1" value="&lt;font style=&quot;font-size: 12px;&quot;&gt;Hệ Thống Tìm Kiếm Và Đặt Vé Xe Khách&lt;/font&gt;" style="whiteSpace=wrap;html=1;rounded=1;shadow=0;comic=0;strokeWidth=2;fontFamily=Verdana;align=center;fontSize=12;fontStyle=1" parent="1" vertex="1">
          <mxGeometry x="1005" y="110" width="200" height="50" as="geometry" />
        </mxCell>
        <mxCell id="218ae93e1282097f-2" value="Đặt Vé Và Thanh Toán" style="whiteSpace=wrap;html=1;rounded=1;shadow=0;comic=0;strokeWidth=2;fontFamily=Verdana;align=center;fontSize=12;fontStyle=1;arcSize=22;" parent="1" vertex="1">
          <mxGeometry x="1030" y="220" width="210" height="50" as="geometry" />
        </mxCell>
        <mxCell id="218ae93e1282097f-5" value="Quản Lý Đơn Đặt Vé" style="whiteSpace=wrap;html=1;rounded=1;shadow=0;comic=0;strokeWidth=2;fontFamily=Verdana;align=center;fontSize=12;fontStyle=1" parent="1" vertex="1">
          <mxGeometry x="1280" y="220" width="160" height="50" as="geometry" />
        </mxCell>
        <mxCell id="yoJNtJ-4dLOCvJawa3UI-1" value="Đăng Nhập" style="whiteSpace=wrap;html=1;rounded=1;shadow=0;comic=0;strokeWidth=2;fontFamily=Verdana;align=center;fontSize=12;fontStyle=1" vertex="1" parent="1">
          <mxGeometry x="650" y="330" width="50" height="120" as="geometry" />
        </mxCell>
        <mxCell id="yoJNtJ-4dLOCvJawa3UI-10" value="Tìm Kiếm Chuyến Xe" style="whiteSpace=wrap;html=1;rounded=1;shadow=0;comic=0;strokeWidth=2;fontFamily=Verdana;align=center;fontSize=12;fontStyle=1" vertex="1" parent="1">
          <mxGeometry x="800" y="330" width="60" height="120" as="geometry" />
        </mxCell>
        <mxCell id="yoJNtJ-4dLOCvJawa3UI-11" value="Xem Sơ Đồ Ghế Ngồi" style="whiteSpace=wrap;html=1;rounded=1;shadow=0;comic=0;strokeWidth=2;fontFamily=Verdana;align=center;fontSize=12;fontStyle=1" vertex="1" parent="1">
          <mxGeometry x="960" y="330" width="45" height="120" as="geometry" />
        </mxCell>
        <mxCell id="yoJNtJ-4dLOCvJawa3UI-12" value="Xem Chi Tiết Chuyến Xe" style="whiteSpace=wrap;html=1;rounded=1;shadow=0;comic=0;strokeWidth=2;fontFamily=Verdana;align=center;fontSize=12;fontStyle=1" vertex="1" parent="1">
          <mxGeometry x="880" y="330" width="57" height="120" as="geometry" />
        </mxCell>
        <mxCell id="yoJNtJ-4dLOCvJawa3UI-13" value="Chọn Chuyến Xe &amp;amp; Ghế Ngồi" style="whiteSpace=wrap;html=1;rounded=1;shadow=0;comic=0;strokeWidth=2;fontFamily=Verdana;align=center;fontSize=12;fontStyle=1" vertex="1" parent="1">
          <mxGeometry x="1030" y="330" width="70" height="120" as="geometry" />
        </mxCell>
        <mxCell id="yoJNtJ-4dLOCvJawa3UI-14" value="Thanh Toán" style="whiteSpace=wrap;html=1;rounded=1;shadow=0;comic=0;strokeWidth=2;fontFamily=Verdana;align=center;fontSize=12;fontStyle=1" vertex="1" parent="1">
          <mxGeometry x="1190" y="330" width="50" height="120" as="geometry" />
        </mxCell>
        <mxCell id="yoJNtJ-4dLOCvJawa3UI-15" value="Xác Nhận Đặt Vé" style="whiteSpace=wrap;html=1;rounded=1;shadow=0;comic=0;strokeWidth=2;fontFamily=Verdana;align=center;fontSize=12;fontStyle=1" vertex="1" parent="1">
          <mxGeometry x="1120" y="330" width="50" height="120" as="geometry" />
        </mxCell>
        <mxCell id="yoJNtJ-4dLOCvJawa3UI-16" value="Xem Lịch Sử Đặt Vé" style="whiteSpace=wrap;html=1;rounded=1;shadow=0;comic=0;strokeWidth=2;fontFamily=Verdana;align=center;fontSize=12;fontStyle=1" vertex="1" parent="1">
          <mxGeometry x="1290" y="330" width="60" height="120" as="geometry" />
        </mxCell>
        <mxCell id="yoJNtJ-4dLOCvJawa3UI-18" value="Hủy Vé &amp;amp; Hoàn Tiền" style="whiteSpace=wrap;html=1;rounded=1;shadow=0;comic=0;strokeWidth=2;fontFamily=Verdana;align=center;fontSize=12;fontStyle=1" vertex="1" parent="1">
          <mxGeometry x="1370" y="330" width="60" height="120" as="geometry" />
        </mxCell>
        <mxCell id="yoJNtJ-4dLOCvJawa3UI-19" value="Thêm, Sửa, Xóa Thông Tin Xe" style="whiteSpace=wrap;html=1;rounded=1;shadow=0;comic=0;strokeWidth=2;fontFamily=Verdana;align=center;fontSize=12;fontStyle=1" vertex="1" parent="1">
          <mxGeometry x="1460" y="330" width="50" height="120" as="geometry" />
        </mxCell>
        <mxCell id="yoJNtJ-4dLOCvJawa3UI-20" value="Quản Lý Xe &amp;amp; Lịch Trình" style="whiteSpace=wrap;html=1;rounded=1;shadow=0;comic=0;strokeWidth=2;fontFamily=Verdana;align=center;fontSize=12;fontStyle=1" vertex="1" parent="1">
          <mxGeometry x="1460" y="220" width="190" height="50" as="geometry" />
        </mxCell>
        <mxCell id="yoJNtJ-4dLOCvJawa3UI-21" value="Quản Lý Tài Khoản &amp;amp; Nhân Viên" style="whiteSpace=wrap;html=1;rounded=1;shadow=0;comic=0;strokeWidth=2;fontFamily=Verdana;align=center;fontSize=12;fontStyle=1" vertex="1" parent="1">
          <mxGeometry x="1595" y="330" width="55" height="120" as="geometry" />
        </mxCell>
        <mxCell id="yoJNtJ-4dLOCvJawa3UI-23" value="Quản Lý Doanh Thu" style="whiteSpace=wrap;html=1;rounded=1;shadow=0;comic=0;strokeWidth=2;fontFamily=Verdana;align=center;fontSize=12;fontStyle=1" vertex="1" parent="1">
          <mxGeometry x="1686.5" y="220" width="140" height="50" as="geometry" />
        </mxCell>
        <mxCell id="yoJNtJ-4dLOCvJawa3UI-24" value="Quản Lý Tài Khoản Người Dùng" style="whiteSpace=wrap;html=1;rounded=1;shadow=0;comic=0;strokeWidth=2;fontFamily=Verdana;align=center;fontSize=12;fontStyle=1" vertex="1" parent="1">
          <mxGeometry x="1860" y="220" width="120" height="50" as="geometry" />
        </mxCell>
        <mxCell id="yoJNtJ-4dLOCvJawa3UI-25" value="Thêm, Sửa, Xóa Tuyến Đường" style="whiteSpace=wrap;html=1;rounded=1;shadow=0;comic=0;strokeWidth=2;fontFamily=Verdana;align=center;fontSize=12;fontStyle=1" vertex="1" parent="1">
          <mxGeometry x="1530" y="330" width="50" height="120" as="geometry" />
        </mxCell>
        <mxCell id="yoJNtJ-4dLOCvJawa3UI-26" value="Xem Danh Sách Vé" style="whiteSpace=wrap;html=1;rounded=1;shadow=0;comic=0;strokeWidth=2;fontFamily=Verdana;align=center;fontSize=12;fontStyle=1" vertex="1" parent="1">
          <mxGeometry x="1686.5" y="330" width="60" height="120" as="geometry" />
        </mxCell>
        <mxCell id="yoJNtJ-4dLOCvJawa3UI-29" value="Xem Báo Cáo Doanh Thu" style="whiteSpace=wrap;html=1;rounded=1;shadow=0;comic=0;strokeWidth=2;fontFamily=Verdana;align=center;fontSize=12;fontStyle=1" vertex="1" parent="1">
          <mxGeometry x="1766.5" y="330" width="60" height="120" as="geometry" />
        </mxCell>
        <mxCell id="yoJNtJ-4dLOCvJawa3UI-30" value="Xem Danh Sách Khách Hàng" style="whiteSpace=wrap;html=1;rounded=1;shadow=0;comic=0;strokeWidth=2;fontFamily=Verdana;align=center;fontSize=12;fontStyle=1" vertex="1" parent="1">
          <mxGeometry x="1860" y="330" width="60" height="120" as="geometry" />
        </mxCell>
      </root>
    </mxGraphModel>
  </diagram>
</mxfile>
